<svg width="24" height="24" viewBox="0 0 24 24" fill="none" xmlns="http://www.w3.org/2000/svg">
<path d="M16.0658 8.99517C16.3586 8.70228 16.3586 8.22741 16.0658 7.93451C15.7729 7.64162 15.298 7.64162 15.0051 7.93451L11.9999 10.9397L8.99469 7.93451C8.7018 7.64162 8.22693 7.64162 7.93403 7.93451C7.64114 8.22741 7.64114 8.70228 7.93403 8.99517L10.9392 12.0004L7.93403 15.0056C7.64113 15.2985 7.64113 15.7733 7.93403 16.0662C8.22692 16.3591 8.70179 16.3591 8.99469 16.0662L11.9999 13.061L15.0051 16.0662C15.298 16.3591 15.7729 16.3591 16.0658 16.0662C16.3587 15.7733 16.3587 15.2985 16.0658 15.0056L13.0606 12.0004L16.0658 8.99517Z" fill="white"/>
</svg>
