<svg width="80" height="80" viewBox="0 0 80 80" fill="none" xmlns="http://www.w3.org/2000/svg">
<path fill-rule="evenodd" clip-rule="evenodd" d="M71.6263 34.166C71.545 33.5623 71.4563 32.9594 71.3602 32.3573L71.1466 31.0192C70.3957 26.3147 66.3377 22.8531 61.5737 22.8531L34.5172 22.8531C33.5137 19.2832 30.2344 16.666 26.3438 16.666H18.7053C13.7625 16.666 9.5992 20.3593 9.00988 25.2668L8.1016 32.8305C7.1261 40.9539 7.37786 49.1778 8.84843 57.2264C9.63515 61.5322 13.2363 64.7598 17.6022 65.0721L22.6489 65.4332C34.2013 66.2597 45.7981 66.2597 57.3505 65.4332L62.8101 65.0426C65.5052 64.8498 67.8918 63.4805 69.429 61.4195C71.4745 59.4573 73.0843 57.0606 74.1258 54.3825L78.2906 43.6731C80.0695 39.0988 76.6951 34.166 71.7871 34.166H71.6263ZM18.7053 21.666C16.2933 21.666 14.2618 23.4682 13.9742 25.8629L13.0659 33.4266C12.1502 41.0523 12.3865 48.7723 13.767 56.3277C14.1438 58.3897 15.8683 59.9353 17.959 60.0849L18.2457 60.1054L26.0193 40.0236C27.3859 36.4932 30.7822 34.166 34.5679 34.166H66.5779C66.5287 33.8255 66.4769 33.4853 66.4227 33.1454L66.2091 31.8073C65.8455 29.5293 63.8806 27.8531 61.5737 27.8531L32.5309 27.8531C31.0409 27.8531 29.833 26.6452 29.833 25.1552C29.833 23.2282 28.2709 21.666 26.3438 21.666H18.7053Z" fill="#FF5555"/>
</svg>
