<svg width="80" height="80" viewBox="0 0 80 80" fill="none" xmlns="http://www.w3.org/2000/svg">
<path fill-rule="evenodd" clip-rule="evenodd" d="M24.3891 12.5619C34.681 11.4117 45.3189 11.4117 55.6108 12.5619C61.6987 13.2423 66.615 18.0378 67.3312 24.161C68.562 34.6841 68.562 45.3147 67.3312 55.8378C66.615 61.961 61.6987 66.7565 55.6108 67.4369C45.3189 68.5872 34.681 68.5872 24.3891 67.4369C18.3012 66.7565 13.3848 61.961 12.6687 55.8378C11.4379 45.3147 11.4379 34.6841 12.6687 24.161C13.3848 18.0378 18.3012 13.2423 24.3891 12.5619ZM43.3333 26.6661C43.3333 28.507 41.8409 29.9994 40 29.9994C38.159 29.9994 36.6667 28.507 36.6667 26.6661C36.6667 24.8251 38.159 23.3327 40 23.3327C41.8409 23.3327 43.3333 24.8251 43.3333 26.6661ZM40 35.8327C41.3807 35.8327 42.5 36.952 42.5 38.3327V54.9994C42.5 56.3801 41.3807 57.4994 40 57.4994C38.6193 57.4994 37.5 56.3801 37.5 54.9994V38.3327C37.5 36.952 38.6193 35.8327 40 35.8327Z" fill="#3772FF"/>
</svg>
