<svg width="40" height="40" viewBox="0 0 40 40" fill="none" xmlns="http://www.w3.org/2000/svg">
<rect width="40" height="40" rx="11.4286" fill="#20AA18"/>
<g clip-path="url(#clip0_3149_3809)">
<path d="M33.3936 15.8513H31.3401C31.1837 15.8513 31.0333 15.9117 30.9204 16.0199L30.4821 16.4398C29.7432 14.7301 28.6831 13.0393 27.2513 11.2889C26.4773 10.3432 25.3327 9.80078 24.1108 9.80078H15.8892C14.6671 9.80078 13.5225 10.3432 12.7489 11.289C11.2719 13.0945 10.2329 14.7445 9.5115 16.4338L9.07962 16.0199C8.96673 15.9117 8.81635 15.8513 8.65994 15.8513H6.60651C6.27151 15.8513 6 16.1228 6 16.4578V17.8618C6 18.1819 6.24888 18.4468 6.56838 18.4671L8.67907 18.6C8.36015 19.5319 8.11114 20.9206 8.11114 22.879C8.11114 24.5783 8.45055 25.6952 9.04124 26.4182V29.6897C9.04124 29.9702 9.26865 30.1975 9.54918 30.1975H11.8855C12.1662 30.1975 12.3937 29.9702 12.3937 29.6897V27.6581H27.6064V29.6897C27.6064 29.9702 27.8339 30.1975 28.1144 30.1975H30.4508C30.7313 30.1975 30.9588 29.9702 30.9588 29.6897V26.4182C31.5493 25.6952 31.8889 24.5783 31.8889 22.879C31.8889 20.9206 31.6399 19.5319 31.321 18.6L33.4317 18.4671C33.7511 18.4468 34 18.1819 34 17.8618V16.4578C34 16.1228 33.7286 15.8513 33.3936 15.8513ZM14.4823 12.707C14.829 12.2833 15.3418 12.0402 15.8892 12.0402H24.1108C24.6581 12.0402 25.1712 12.2833 25.5178 12.707C26.5194 13.9315 27.3105 15.1033 27.9219 16.2706L12.0641 16.2736C12.6621 15.1323 13.4577 13.9595 14.4823 12.707ZM12.7542 25.1738C11.5913 25.1738 10.6487 24.794 10.6487 23.8726C10.6487 22.9513 10.9907 22.2042 12.1535 22.2042C13.3164 22.2042 14.8596 22.9513 14.8596 23.8726C14.8596 24.7939 13.9169 25.1738 12.7542 25.1738ZM22.2071 24.9818H17.793C17.1276 24.9818 16.5863 24.4405 16.5863 23.7751C16.5863 23.5884 16.7376 23.4371 16.9244 23.4371H23.0759C23.2626 23.4371 23.4138 23.5884 23.4138 23.7751C23.4138 24.4405 22.8725 24.9818 22.2071 24.9818ZM27.2458 25.1738C26.083 25.1738 25.1403 24.794 25.1403 23.8726C25.1403 22.9513 26.6838 22.2042 27.8464 22.2042C29.0092 22.2042 29.3513 22.9513 29.3513 23.8726C29.3513 24.7939 28.4087 25.1738 27.2458 25.1738Z" fill="white"/>
</g>
<defs>
<clipPath id="clip0_3149_3809">
<rect width="28" height="28" fill="white" transform="translate(6 6)"/>
</clipPath>
</defs>
</svg>
