<svg width="40" height="40" viewBox="0 0 40 40" fill="none" xmlns="http://www.w3.org/2000/svg">
<rect width="40" height="40" rx="11.4286" fill="#06A3FF"/>
<path d="M21.3813 10.962C20.5312 10.4502 19.4678 10.4502 18.6178 10.962L18.0031 11.3321C16.5118 12.2302 14.8375 12.7812 13.1043 12.9445L12.7171 12.981C11.9527 13.053 11.3686 13.6947 11.3686 14.4625V16.4195C11.3686 19.7274 12.7115 22.8936 15.0898 25.1927L18.9653 28.9391C19.542 29.4967 20.457 29.4967 21.0338 28.9391L24.9093 25.1927C27.2875 22.8936 28.6305 19.7274 28.6305 16.4195V14.4625C28.6305 13.6947 28.0464 13.053 27.282 12.981L26.8947 12.9445C25.1615 12.7812 23.4873 12.2302 21.9959 11.3321L21.3813 10.962Z" fill="white"/>
</svg>
