<svg width="40" height="40" viewBox="0 0 40 40" fill="none" xmlns="http://www.w3.org/2000/svg">
<rect width="40" height="40" rx="11.4286" fill="#8C8F9C"/>
<path fill-rule="evenodd" clip-rule="evenodd" d="M15.2399 11.1351C18.4499 10.8932 21.674 10.9091 24.8814 11.1826L26.8144 11.3474C28.2745 11.472 29.4595 12.5801 29.6815 14.0286L29.8035 14.8242C30.2173 17.5241 30.1786 20.2741 29.689 22.9613C29.4475 24.2871 28.2925 25.2507 26.9447 25.2507H16.2585C16.0127 25.2507 15.7707 25.3116 15.5541 25.428L10.8984 27.93C10.6217 28.0788 10.2872 28.0711 10.0176 27.9099C9.74795 27.7487 9.58287 27.4577 9.58287 27.1436V17.0039C9.58287 13.9342 11.9488 11.3832 15.0099 11.1525L15.2399 11.1351ZM15.2376 17.0245C14.4158 17.0245 13.7495 17.6908 13.7495 18.5126C13.7495 19.3345 14.4158 20.0007 15.2376 20.0007C16.0595 20.0007 16.7257 19.3345 16.7257 18.5126C16.7257 17.6908 16.0595 17.0245 15.2376 17.0245ZM19.9995 17.0245C19.1777 17.0245 18.5114 17.6908 18.5114 18.5126C18.5114 19.3345 19.1777 20.0007 19.9995 20.0007C20.8214 20.0007 21.4876 19.3345 21.4876 18.5126C21.4876 17.6908 20.8214 17.0245 19.9995 17.0245ZM23.2733 18.5126C23.2733 17.6908 23.9396 17.0245 24.7614 17.0245C25.5833 17.0245 26.2495 17.6908 26.2495 18.5126C26.2495 19.3345 25.5833 20.0007 24.7614 20.0007C23.9396 20.0007 23.2733 19.3345 23.2733 18.5126Z" fill="white"/>
</svg>
