<svg width="40" height="40" viewBox="0 0 40 40" fill="none" xmlns="http://www.w3.org/2000/svg">
<rect width="40" height="40" rx="11.4286" fill="#CE46FF"/>
<path d="M8.75423 24.8343C8.63978 25.0603 8.68094 25.334 8.8568 25.5164C9.03266 25.6987 9.30468 25.7498 9.5347 25.6436L12.5101 24.2704C15.0108 23.1162 17.7398 22.5882 20.4641 22.7124C20.4964 23.5872 20.5444 24.4616 20.6081 25.3352L20.6896 26.453C20.739 27.1312 21.4952 27.5102 22.0682 27.1441C24.5551 25.5551 26.717 23.5075 28.4388 21.1106L28.9867 20.3479C29.1358 20.1404 29.1358 19.8609 28.9867 19.6534L28.4389 18.8908C26.717 16.4939 24.5551 14.4463 22.0682 12.8572C21.4952 12.4911 20.739 12.8702 20.6896 13.5483L20.6081 14.6662C20.5535 15.416 20.5103 16.1664 20.4788 16.9173H19.7132C15.4501 16.9173 11.5493 19.3145 9.62342 23.1177L8.75423 24.8343Z" fill="white"/>
</svg>
