<svg width="40" height="40" viewBox="0 0 40 40" fill="none" xmlns="http://www.w3.org/2000/svg">
<rect width="40" height="40" rx="11.4286" fill="#F08606"/>
<path d="M17.3214 16.4295C17.3214 14.9502 18.5207 13.7509 20 13.7509C21.4793 13.7509 22.6786 14.9502 22.6786 16.4295C22.6786 17.9088 21.4793 19.1081 20 19.1081C18.5207 19.1081 17.3214 17.9088 17.3214 16.4295Z" fill="white"/>
<path fill-rule="evenodd" clip-rule="evenodd" d="M19.8072 8.69141C15.9948 8.69141 12.8198 11.6155 12.5066 15.4149C12.3383 17.4575 12.9692 19.4856 14.2665 21.0722L18.546 26.3059C19.2975 27.225 20.7025 27.225 21.454 26.3059L25.7335 21.0722C27.0308 19.4856 27.6617 17.4575 27.4934 15.4149C27.1802 11.6155 24.0052 8.69141 20.1928 8.69141H19.8072ZM20 11.9652C17.5344 11.9652 15.5357 13.9639 15.5357 16.4295C15.5357 18.8951 17.5344 20.8938 20 20.8938C22.4656 20.8938 24.4643 18.8951 24.4643 16.4295C24.4643 13.9639 22.4656 11.9652 20 11.9652Z" fill="white"/>
<path d="M14.4469 23.9642C14.888 24.1848 15.0667 24.7211 14.8462 25.1621L13.1113 28.6319H26.8887L25.1538 25.1621C24.9333 24.7211 25.112 24.1848 25.5531 23.9642C25.9941 23.7437 26.5305 23.9225 26.751 24.3635L29.1319 29.1254C29.2703 29.4022 29.2555 29.7309 29.0928 29.9941C28.9302 30.2574 28.6428 30.4176 28.3333 30.4176H11.6667C11.3572 30.4176 11.0698 30.2574 10.9072 29.9941C10.7445 29.7309 10.7297 29.4022 10.8681 29.1254L13.249 24.3635C13.4696 23.9225 14.0059 23.7437 14.4469 23.9642Z" fill="white"/>
</svg>
