<svg width="40" height="40" viewBox="0 0 40 40" fill="none" xmlns="http://www.w3.org/2000/svg">
<rect width="40" height="40" rx="11.4286" fill="#3772FF"/>
<path fill-rule="evenodd" clip-rule="evenodd" d="M22.679 8.6902C22.679 8.52583 22.5458 8.39258 22.3814 8.39258H14.0481C12.24 8.39258 10.7743 9.85831 10.7743 11.6664V28.3331C10.7743 30.1411 12.24 31.6069 14.0481 31.6069H25.9528C27.7609 31.6069 29.2267 30.1411 29.2267 28.3331V16.6034C29.2267 16.439 29.0934 16.3057 28.929 16.3057H23.5719C23.0788 16.3057 22.679 15.906 22.679 15.4129V8.6902ZM23.5719 20.2973C24.065 20.2973 24.4648 20.6971 24.4648 21.1902C24.4648 21.6833 24.065 22.0831 23.5719 22.0831H16.429C15.9359 22.0831 15.5362 21.6833 15.5362 21.1902C15.5362 20.6971 15.9359 20.2973 16.429 20.2973H23.5719ZM23.5719 25.0592C24.065 25.0592 24.4648 25.459 24.4648 25.9521C24.4648 26.4452 24.065 26.845 23.5719 26.845H16.429C15.9359 26.845 15.5362 26.4452 15.5362 25.9521C15.5362 25.459 15.9359 25.0592 16.429 25.0592H23.5719Z" fill="white"/>
<path d="M24.4648 9.07607C24.4648 8.85644 24.6941 8.71698 24.865 8.85494C25.0089 8.97115 25.1383 9.10729 25.2487 9.26109L28.8358 14.2586C28.9175 14.3724 28.829 14.52 28.689 14.52H24.7624C24.598 14.52 24.4648 14.3868 24.4648 14.2224V9.07607Z" fill="white"/>
</svg>
