<svg width="40" height="40" viewBox="0 0 40 40" fill="none" xmlns="http://www.w3.org/2000/svg">
<rect width="40" height="40" rx="11.4286" fill="#FF5555"/>
<path fill-rule="evenodd" clip-rule="evenodd" d="M21.1905 9.28618C21.1905 8.6287 20.6575 8.0957 20 8.0957C19.3425 8.0957 18.8095 8.6287 18.8095 9.28618V10.179H18.1459C15.497 10.179 13.3046 12.2386 13.1393 14.8823L12.8762 19.0888C12.7759 20.6926 12.2374 22.2381 11.3195 23.5571C10.4901 24.7488 11.2285 26.3948 12.6701 26.5678L16.7262 27.0545V28.3338C16.7262 30.1419 18.1919 31.6076 20 31.6076C21.8081 31.6076 23.2738 30.1419 23.2738 28.3338V27.0545L27.3299 26.5678C28.7715 26.3948 29.5098 24.7488 28.6804 23.5571C27.7625 22.2381 27.2241 20.6926 27.1238 19.0888L26.8607 14.8823C26.6953 12.2386 24.5029 10.179 21.854 10.179H21.1905V9.28618ZM18.5119 28.3338C18.5119 29.1556 19.1781 29.8219 20 29.8219C20.8218 29.8219 21.4881 29.1556 21.4881 28.3338V27.4409H18.5119V28.3338Z" fill="white"/>
</svg>
