<svg width="24" height="24" viewBox="0 0 24 24" fill="none" xmlns="http://www.w3.org/2000/svg">
<path fill-rule="evenodd" clip-rule="evenodd" d="M9.06356 21.8364C10.7131 22.1645 12.423 21.9961 13.9768 21.3525C15.5307 20.7088 16.8588 19.6189 17.7932 18.2204C18.7276 16.822 19.2264 15.1779 19.2264 13.496V12.746H11.4726V4.9922L10.7226 4.99219C9.04067 4.99219 7.39655 5.49094 5.9981 6.42535C4.59966 7.35976 3.5097 8.68787 2.86607 10.2417C2.22243 11.7956 2.05403 13.5054 2.38215 15.155C2.71027 16.8046 3.52018 18.3198 4.70946 19.5091C5.89874 20.6983 7.41398 21.5083 9.06356 21.8364ZM13.4028 19.9666C12.123 20.4967 10.7148 20.6354 9.35619 20.3652C7.99758 20.095 6.74962 19.4279 5.77012 18.4484C4.79062 17.4689 4.12357 16.2209 3.85333 14.8623C3.58309 13.5037 3.72179 12.0955 4.25189 10.8157C4.78199 9.53599 5.67969 8.44214 6.83146 7.67255C7.77423 7.04261 8.85257 6.65309 9.97257 6.53246V14.246H17.6861C17.5655 15.366 17.176 16.4443 16.546 17.3871C15.7764 18.5388 14.6826 19.4365 13.4028 19.9666Z" fill="#3772FF"/>
<path fill-rule="evenodd" clip-rule="evenodd" d="M13.0272 11.2538H22.281V10.5038C22.281 8.24846 21.3851 6.08548 19.7903 4.4907C18.1956 2.89593 16.0326 1.99999 13.7772 2H13.0272V11.2538ZM14.5272 9.75381V3.54024C16.109 3.71056 17.5942 4.41589 18.7297 5.55136C19.8651 6.68684 20.5705 8.17205 20.7408 9.75381H14.5272Z" fill="#3772FF"/>
</svg>
